<svg xmlns="http://www.w3.org/2000/svg" width="113" height="112" viewBox="0 0 113 112" fill="none">
  <path d="M61.0163 31.5818C59.4703 30.9528 57.8223 30.6128 56.1063 30.6128C53.9823 30.6128 51.9443 31.1398 50.0423 32.1078C55.4783 35.6238 59.3512 44.9508 59.3512 55.9088C59.3512 66.8658 55.4793 76.1928 50.0423 79.7088M61.0163 31.5818C68.4913 34.6058 73.9443 44.3568 73.9443 55.9088M61.0163 31.5818C62.9023 30.9528 64.9063 30.6128 66.9613 30.6128C68.6493 30.6136 70.3295 30.8423 71.9563 31.2928M61.0163 31.5818C68.4743 34.6058 73.9443 44.3568 73.9443 55.9088M73.9443 55.9088C73.9443 67.4608 68.4913 77.2118 61.0163 80.2358M61.0163 80.2358C59.4533 80.8648 57.8063 81.2038 56.1063 81.2038C53.9833 81.2038 51.9273 80.6778 50.0423 79.7088M61.0163 80.2358C64.5527 81.4197 68.3612 81.5203 71.9553 80.5248M50.0423 79.7088C48.5473 80.6768 46.9323 81.2038 45.2513 81.2038C43.0083 81.2038 40.8853 80.2698 38.9993 78.5878M50.0413 32.1088C48.5463 31.1398 46.9333 30.6128 45.2513 30.6128C43.0083 30.6128 40.8853 31.5648 38.9993 33.2298M38.9993 33.2298C42.4143 37.3578 44.7752 45.9698 44.7752 55.9088M38.9993 33.2298C42.4313 37.3758 44.7752 45.9708 44.7752 55.9088M38.9993 33.2298C37.6063 31.5658 36.0433 30.6128 34.3953 30.6128C31.8813 30.6128 29.5712 32.8048 27.7702 36.4398C29.2302 41.0778 30.1652 48.0768 30.1652 55.9088M38.9993 78.5878C42.4313 74.4418 44.7752 65.8468 44.7752 55.9088M38.9993 78.5878C42.4143 74.4588 44.7752 65.8468 44.7752 55.9088M38.9993 78.5878C37.6063 80.2518 36.0433 81.2038 34.3953 81.2038C31.8643 81.2038 29.5712 79.0128 27.7702 75.3768M30.1652 55.9088C30.1652 63.7398 29.2312 70.7388 27.7702 75.3768M30.1652 55.9088C30.1652 48.0768 29.2483 41.0788 27.7873 36.4398C26.6323 32.8048 25.1532 30.6128 23.5402 30.6128C19.8702 30.6128 16.8973 41.9438 16.8973 55.9088C16.8973 69.8728 19.8702 81.2038 23.5402 81.2038C25.1532 81.2038 26.6312 79.0128 27.7702 75.3768M71.9563 31.2928C73.8769 30.8412 75.8433 30.6131 77.8163 30.6128C91.7983 30.6128 103.112 41.9438 103.112 55.9088C103.112 69.8728 91.7813 81.2048 77.8163 81.2048C75.7953 81.2048 73.8413 80.9658 71.9553 80.5248M71.9563 31.2928C81.4523 33.9428 88.5192 43.9488 88.5192 55.9088C88.5192 67.8688 81.4693 77.8748 71.9553 80.5248M71.9563 31.2928C81.4693 33.9428 88.5362 43.9488 88.5362 55.9088C88.5362 67.8678 81.4693 77.8748 71.9553 80.5248M12.6862 30.6128C11.0892 30.6128 9.78125 41.9438 9.78125 55.9088C9.78125 69.8728 11.0892 81.2038 12.6862 81.2038C14.2822 81.2038 15.5903 69.8738 15.5903 55.9088C15.5903 41.9438 14.3012 30.6128 12.6862 30.6128Z" stroke="white" stroke-width="4" stroke-linecap="round" stroke-linejoin="round"/>
</svg>